---
title: SviatoslavRichter-《Meisterkonzerte》3CD【Hi-Res】24-96FLAC
date: 2023-07-21 10:11:52
categories: 古典音乐、新世纪、纯音雅乐
tags: 纯音雅乐
---
# SviatoslavRichter-《Meisterkonzerte》3CD【Hi-Res】24-96FLAC

dBpoweramp Release 17 Digital Audio
Extraction Log from 2023年5月15日 15:11
Drive & Settings
----------------
Ripping with drive 'H: [TEAC - DW-224E-V ]', Drive offset: 102,
Overread Lead-in/out: No
AccurateRip: Active, Using C2: No, Cache: 1024 KB, FUA Cache
Invalidate: No
Pass 1 Drive Speed: 4, Pass 2 Drive Speed: Max
Bad Sector Re-rip:: Drive Speed: Max, Maximum Re-reads: 34
Encoder: Wave -compression="PCM"
Extraction Log
--------------
Track 1: Ripped LBA 33 to 66408 (14:45) in 3:42. Filename:
G:\CD\Sviatoslav Richter\Sviatoslav Richter - Meisterkonzerte Disc
1\01 Stanislaw Wislocki - Piano Concerto No. 20 in D minor, K. 466-
1. Allegro.wav
AccurateRip: Accurate (confidence 12) [Pass 1]
CRC32: F73D7BCC AccurateRip CRC: B0338600 (CRCv2) [DiscID:
006-00116f41-005c121a-56104006-1]
AccurateRip Verified Confidence 12 [CRCv2 b0338600]
AccurateRip Verified Confidence 3 [CRCv1 91e2a05e]
AccurateRip Verified Confidence 3 [CRCv2 83caedb], Using
Pressing Offset +887
Track 2: Ripped LBA 66408 to 112983 (10:21) in 2:35. Filename:
G:\CD\Sviatoslav Richter\Sviatoslav Richter - Meisterkonzerte Disc
1\02 Stanislaw Wislocki - Piano Concerto No. 20 in D minor, K. 466-
2. Romance.wav
AccurateRip: Accurate (confidence 12) [Pass 1]
CRC32: 00B616AD AccurateRip CRC: 34345D20 (CRCv2) [DiscID:
006-00116f41-005c121a-56104006-2]
AccurateRip Verified Confidence 12 [CRCv2 34345d20]
AccurateRip Verified Confidence 3 [CRCv1 5ee6d634]
AccurateRip Verified Confidence 3 [CRCv2 a8d531d9], Using
Pressing Offset +887
Track 3: Ripped LBA 112983 to 150558 (8:21) in 2:05. Filename:
G:\CD\Sviatoslav Richter\Sviatoslav Richter - Meisterkonzerte Disc
1\03 Stanislaw Wislocki - Piano Concerto No. 20 in D minor, K. 466-
3. Rondo (Alle.wav
AccurateRip: Accurate (confidence 12) [Pass 1]
CRC32: 6ED7088B AccurateRip CRC: D1ED71F1 (CRCv2) [DiscID:
006-00116f41-005c121a-56104006-3]
AccurateRip Verified Confidence 12 [CRCv2 d1ed71f1]
AccurateRip Verified Confidence 3 [CRCv1 321078cf]
AccurateRip Verified Confidence 3 [CRCv2 25d7c3d0], Using
Pressing Offset +887
Track 4: Ripped LBA 150558 to 227783 (17:09) in 4:18. Filename:
G:\CD\Sviatoslav Richter\Sviatoslav Richter - Meisterkonzerte Disc
1\04 Kurt Sanderling - Piano Concerto No. 3 in C minor, Op. 37- 1.
Allegro con bri.wav
AccurateRip: Accurate (confidence 11) [Pass 1]
CRC32: AFD46B67 AccurateRip CRC: 4935589F (CRCv2) [DiscID:
006-00116f41-005c121a-56104006-4]
AccurateRip Verified Confidence 11 [CRCv2 4935589f]
AccurateRip Verified Confidence 3 [CRCv1 c036626c]
AccurateRip Verified Confidence 3 [CRCv2 25084928], Using
Pressing Offset +887
Track 5: Ripped LBA 227783 to 272795 (10:00) in 2:30. Filename:
G:\CD\Sviatoslav Richter\Sviatoslav Richter - Meisterkonzerte Disc
1\05 Kurt Sanderling - Piano Concerto No. 3 in C minor, Op. 37- 2.
Largo.wav
AccurateRip: Accurate (confidence 11) [Pass 1]
CRC32: 5CD0E4D7 AccurateRip CRC: 0D919647 (CRCv2) [DiscID:
006-00116f41-005c121a-56104006-5]
AccurateRip Verified Confidence 11 [CRCv2 d919647]
AccurateRip Verified Confidence 3 [CRCv1 54ee44cf]
AccurateRip Verified Confidence 4 [CRCv2 af0fe08b], Using
Pressing Offset +887
Track 6: Ripped LBA 272795 to 312033 (8:43) in 2:11. Filename:
G:\CD\Sviatoslav Richter\Sviatoslav Richter - Meisterkonzerte Disc
1\06 Kurt Sanderling - Piano Concerto No. 3 in C minor, Op. 37- 3.
Rondo. Allegro.wav
AccurateRip: Accurate (confidence 11) [Pass 1]
CRC32: 74AE501F AccurateRip CRC: 2A4B92BB (CRCv2) [DiscID:
006-00116f41-005c121a-56104006-6]
AccurateRip Verified Confidence 11 [CRCv2 2a4b92bb]
AccurateRip Verified Confidence 2 [CRCv1 c8abcc38]
AccurateRip Verified Confidence 3 [CRCv2 a2edc2d5], Using
Pressing Offset +887
--------------
6 Tracks Ripped Accurately
Sviatoslav Richter - Meisterkonzerte Disc 1.zip: https://url27.ctfile.com/f/9388027-890984322-500647?p=559675
(访问密码: 559675)
Sviatoslav Richter - Meisterkonzerte Disc 2.zip: https://url27.ctfile.com/f/9388027-890984313-e16860?p=559675
(访问密码: 559675)
Sviatoslav Richter - Meisterkonzerte Disc 3.rar: https://url27.ctfile.com/f/9388027-890984271-98725c?p=559675
(访问密码: 559675)
原文：[链接](https://blog.sina.com.cn/s/blog_1647c7e76010312s7.html)